<mxfile host="app.diagrams.net" modified="2022-08-15T06:32:29.925Z" agent="5.0 (Windows NT 10.0; Win64; x64) AppleWebKit/537.36 (KHTML, like Gecko) Chrome/100.0.4896.60 Safari/537.36" etag="3wm8cx2YzphNMQgpE5bE" version="20.2.3" type="github">
  <diagram id="ZixIut9k-mKDCpOTJ_UP" name="第 1 页">
    <mxGraphModel dx="1038" dy="1013" grid="1" gridSize="10" guides="1" tooltips="1" connect="1" arrows="1" fold="1" page="0" pageScale="1" pageWidth="827" pageHeight="1169" math="0" shadow="0">
      <root>
        <mxCell id="0" />
        <mxCell id="1" parent="0" />
        <mxCell id="b2xYwpEXCuKMOYOrDAtH-6" style="edgeStyle=orthogonalEdgeStyle;rounded=0;orthogonalLoop=1;jettySize=auto;html=1;" edge="1" parent="1" source="b2xYwpEXCuKMOYOrDAtH-1" target="b2xYwpEXCuKMOYOrDAtH-2">
          <mxGeometry relative="1" as="geometry" />
        </mxCell>
        <mxCell id="b2xYwpEXCuKMOYOrDAtH-1" value="新货上架MQ" style="rounded=0;whiteSpace=wrap;html=1;fillColor=#dae8fc;strokeColor=#6c8ebf;" vertex="1" parent="1">
          <mxGeometry x="140" y="-70" width="140" height="50" as="geometry" />
        </mxCell>
        <mxCell id="b2xYwpEXCuKMOYOrDAtH-7" style="edgeStyle=orthogonalEdgeStyle;rounded=0;orthogonalLoop=1;jettySize=auto;html=1;" edge="1" parent="1" source="b2xYwpEXCuKMOYOrDAtH-2" target="b2xYwpEXCuKMOYOrDAtH-3">
          <mxGeometry relative="1" as="geometry" />
        </mxCell>
        <mxCell id="b2xYwpEXCuKMOYOrDAtH-2" value="司机召回" style="rounded=0;whiteSpace=wrap;html=1;fillColor=#d5e8d4;strokeColor=#82b366;" vertex="1" parent="1">
          <mxGeometry x="140" y="10" width="140" height="50" as="geometry" />
        </mxCell>
        <mxCell id="b2xYwpEXCuKMOYOrDAtH-8" style="edgeStyle=orthogonalEdgeStyle;rounded=0;orthogonalLoop=1;jettySize=auto;html=1;entryX=0.5;entryY=0;entryDx=0;entryDy=0;" edge="1" parent="1" source="b2xYwpEXCuKMOYOrDAtH-3" target="b2xYwpEXCuKMOYOrDAtH-4">
          <mxGeometry relative="1" as="geometry" />
        </mxCell>
        <mxCell id="b2xYwpEXCuKMOYOrDAtH-3" value="货源打分" style="rounded=0;whiteSpace=wrap;html=1;fillColor=#d5e8d4;strokeColor=#82b366;" vertex="1" parent="1">
          <mxGeometry x="140" y="90" width="140" height="50" as="geometry" />
        </mxCell>
        <mxCell id="b2xYwpEXCuKMOYOrDAtH-9" style="edgeStyle=orthogonalEdgeStyle;rounded=0;orthogonalLoop=1;jettySize=auto;html=1;entryX=0.5;entryY=0;entryDx=0;entryDy=0;" edge="1" parent="1" source="b2xYwpEXCuKMOYOrDAtH-4" target="b2xYwpEXCuKMOYOrDAtH-5">
          <mxGeometry relative="1" as="geometry" />
        </mxCell>
        <mxCell id="b2xYwpEXCuKMOYOrDAtH-4" value="业务频控" style="rounded=0;whiteSpace=wrap;html=1;fillColor=#d5e8d4;strokeColor=#82b366;" vertex="1" parent="1">
          <mxGeometry x="140" y="170" width="140" height="50" as="geometry" />
        </mxCell>
        <mxCell id="b2xYwpEXCuKMOYOrDAtH-21" style="edgeStyle=orthogonalEdgeStyle;rounded=0;orthogonalLoop=1;jettySize=auto;html=1;entryX=0.5;entryY=0;entryDx=0;entryDy=0;" edge="1" parent="1" source="b2xYwpEXCuKMOYOrDAtH-5" target="b2xYwpEXCuKMOYOrDAtH-16">
          <mxGeometry relative="1" as="geometry" />
        </mxCell>
        <mxCell id="b2xYwpEXCuKMOYOrDAtH-5" value="场景接入" style="rounded=0;whiteSpace=wrap;html=1;fillColor=#ffe6cc;strokeColor=#d79b00;" vertex="1" parent="1">
          <mxGeometry x="140" y="250" width="140" height="50" as="geometry" />
        </mxCell>
        <mxCell id="b2xYwpEXCuKMOYOrDAtH-11" value="" style="endArrow=none;dashed=1;html=1;rounded=0;" edge="1" parent="1">
          <mxGeometry width="50" height="50" relative="1" as="geometry">
            <mxPoint y="-10" as="sourcePoint" />
            <mxPoint x="320" y="-10" as="targetPoint" />
          </mxGeometry>
        </mxCell>
        <mxCell id="b2xYwpEXCuKMOYOrDAtH-12" value="货源系统" style="text;html=1;strokeColor=none;fillColor=none;align=center;verticalAlign=middle;whiteSpace=wrap;rounded=0;fontSize=13;fontStyle=1" vertex="1" parent="1">
          <mxGeometry x="40" y="-50" width="60" height="30" as="geometry" />
        </mxCell>
        <mxCell id="b2xYwpEXCuKMOYOrDAtH-14" value="" style="endArrow=none;dashed=1;html=1;rounded=0;" edge="1" parent="1">
          <mxGeometry width="50" height="50" relative="1" as="geometry">
            <mxPoint y="230" as="sourcePoint" />
            <mxPoint x="320" y="230" as="targetPoint" />
          </mxGeometry>
        </mxCell>
        <mxCell id="b2xYwpEXCuKMOYOrDAtH-15" value="cargo-notify" style="text;html=1;strokeColor=none;fillColor=none;align=center;verticalAlign=middle;whiteSpace=wrap;rounded=0;fontSize=13;fontStyle=1" vertex="1" parent="1">
          <mxGeometry x="30" y="190" width="80" height="30" as="geometry" />
        </mxCell>
        <mxCell id="b2xYwpEXCuKMOYOrDAtH-22" style="edgeStyle=orthogonalEdgeStyle;rounded=0;orthogonalLoop=1;jettySize=auto;html=1;entryX=0.5;entryY=0;entryDx=0;entryDy=0;" edge="1" parent="1" source="b2xYwpEXCuKMOYOrDAtH-16" target="b2xYwpEXCuKMOYOrDAtH-17">
          <mxGeometry relative="1" as="geometry" />
        </mxCell>
        <mxCell id="b2xYwpEXCuKMOYOrDAtH-16" value="调度计划生成" style="rounded=0;whiteSpace=wrap;html=1;fillColor=#ffe6cc;strokeColor=#d79b00;" vertex="1" parent="1">
          <mxGeometry x="140" y="330" width="140" height="50" as="geometry" />
        </mxCell>
        <mxCell id="b2xYwpEXCuKMOYOrDAtH-23" style="edgeStyle=orthogonalEdgeStyle;rounded=0;orthogonalLoop=1;jettySize=auto;html=1;entryX=0.5;entryY=0;entryDx=0;entryDy=0;" edge="1" parent="1" source="b2xYwpEXCuKMOYOrDAtH-17" target="b2xYwpEXCuKMOYOrDAtH-18">
          <mxGeometry relative="1" as="geometry" />
        </mxCell>
        <mxCell id="b2xYwpEXCuKMOYOrDAtH-17" value="调度执行" style="rounded=0;whiteSpace=wrap;html=1;fillColor=#ffe6cc;strokeColor=#d79b00;" vertex="1" parent="1">
          <mxGeometry x="140" y="410" width="140" height="50" as="geometry" />
        </mxCell>
        <mxCell id="b2xYwpEXCuKMOYOrDAtH-36" value="RPC调用" style="edgeStyle=orthogonalEdgeStyle;curved=1;rounded=0;orthogonalLoop=1;jettySize=auto;html=1;entryX=0;entryY=0.5;entryDx=0;entryDy=0;fontSize=13;" edge="1" parent="1" source="b2xYwpEXCuKMOYOrDAtH-18" target="b2xYwpEXCuKMOYOrDAtH-28">
          <mxGeometry relative="1" as="geometry" />
        </mxCell>
        <mxCell id="b2xYwpEXCuKMOYOrDAtH-18" value="PUSH" style="rounded=0;whiteSpace=wrap;html=1;fillColor=#fff2cc;strokeColor=#d6b656;" vertex="1" parent="1">
          <mxGeometry x="140" y="490" width="140" height="50" as="geometry" />
        </mxCell>
        <mxCell id="b2xYwpEXCuKMOYOrDAtH-19" value="" style="endArrow=none;dashed=1;html=1;rounded=0;" edge="1" parent="1">
          <mxGeometry width="50" height="50" relative="1" as="geometry">
            <mxPoint y="470" as="sourcePoint" />
            <mxPoint x="320" y="470" as="targetPoint" />
          </mxGeometry>
        </mxCell>
        <mxCell id="b2xYwpEXCuKMOYOrDAtH-20" value="触达引擎" style="text;html=1;strokeColor=none;fillColor=none;align=center;verticalAlign=middle;whiteSpace=wrap;rounded=0;fontSize=13;fontStyle=1" vertex="1" parent="1">
          <mxGeometry x="40" y="440" width="60" height="30" as="geometry" />
        </mxCell>
        <mxCell id="b2xYwpEXCuKMOYOrDAtH-24" value="" style="endArrow=none;dashed=1;html=1;rounded=0;" edge="1" parent="1">
          <mxGeometry width="50" height="50" relative="1" as="geometry">
            <mxPoint y="550" as="sourcePoint" />
            <mxPoint x="320" y="550" as="targetPoint" />
          </mxGeometry>
        </mxCell>
        <mxCell id="b2xYwpEXCuKMOYOrDAtH-25" value="公共服务" style="text;html=1;strokeColor=none;fillColor=none;align=center;verticalAlign=middle;whiteSpace=wrap;rounded=0;fontSize=13;fontStyle=1" vertex="1" parent="1">
          <mxGeometry x="40" y="520" width="60" height="30" as="geometry" />
        </mxCell>
        <mxCell id="b2xYwpEXCuKMOYOrDAtH-26" value="match-engine-hybrid" style="rounded=0;whiteSpace=wrap;html=1;fillColor=#fff2cc;strokeColor=#d6b656;" vertex="1" parent="1">
          <mxGeometry x="440" y="40" width="160" height="80" as="geometry" />
        </mxCell>
        <mxCell id="b2xYwpEXCuKMOYOrDAtH-27" value="gtr-hybrid" style="rounded=0;whiteSpace=wrap;html=1;fillColor=#fff2cc;strokeColor=#d6b656;" vertex="1" parent="1">
          <mxGeometry x="440" y="200" width="160" height="80" as="geometry" />
        </mxCell>
        <mxCell id="b2xYwpEXCuKMOYOrDAtH-28" value="ps-access-plateform" style="rounded=0;whiteSpace=wrap;html=1;fillColor=#fff2cc;strokeColor=#d6b656;" vertex="1" parent="1">
          <mxGeometry x="440" y="360" width="160" height="80" as="geometry" />
        </mxCell>
        <mxCell id="b2xYwpEXCuKMOYOrDAtH-32" value="PRC调用" style="html=1;verticalAlign=bottom;endArrow=block;entryX=0;entryY=0.5;entryDx=0;entryDy=0;rounded=0;fontSize=13;exitX=1;exitY=0.5;exitDx=0;exitDy=0;edgeStyle=orthogonalEdgeStyle;curved=1;" edge="1" parent="1" source="b2xYwpEXCuKMOYOrDAtH-2" target="b2xYwpEXCuKMOYOrDAtH-26">
          <mxGeometry width="80" relative="1" as="geometry">
            <mxPoint x="270" y="44" as="sourcePoint" />
            <mxPoint x="502.3299999999999" y="43.60000000000002" as="targetPoint" />
          </mxGeometry>
        </mxCell>
        <mxCell id="b2xYwpEXCuKMOYOrDAtH-35" value="RPC调用" style="endArrow=classic;html=1;rounded=0;fontSize=13;curved=1;exitX=1;exitY=0.5;exitDx=0;exitDy=0;entryX=0;entryY=0.5;entryDx=0;entryDy=0;edgeStyle=orthogonalEdgeStyle;" edge="1" parent="1" source="b2xYwpEXCuKMOYOrDAtH-3" target="b2xYwpEXCuKMOYOrDAtH-27">
          <mxGeometry width="50" height="50" relative="1" as="geometry">
            <mxPoint x="350" y="190" as="sourcePoint" />
            <mxPoint x="400" y="140" as="targetPoint" />
          </mxGeometry>
        </mxCell>
      </root>
    </mxGraphModel>
  </diagram>
</mxfile>
